<?xml version="1.0" encoding="UTF-8"?>
<svg id="_レイヤー_1" data-name="レイヤー 1" xmlns="http://www.w3.org/2000/svg" viewBox="0 0 294.65 58.37">
  <path d="M0,27.6C.25,18.24,5.59,10.62,12.61,5.7,17.89,1.98,24.25,0,31.56,0c7.98,0,12.72,3.78,13.08,6.78l-1.02,1.26c-.84-1.92-4.68-5.4-11.52-5.4-5.82,0-11.04,1.8-15.72,5.22-5.82,4.26-10.32,11.82-10.56,19.68-.3,8.76,4.92,13.38,14.04,13.38,4.86,0,9.78-.96,14.34-4.26,2.1-1.44,4.5-4.02,4.56-6.6.18-3.06-2.4-4.44-6.6-4.56-3.48-.12-6.96,0-10.14.36l-.24-.48c1.38-1.62,4.68-3.36,10.2-3.36s9.18,2.22,8.82,7.62c-.24,3.78-2.94,7.2-5.52,9.06-4.74,3.48-10.38,4.86-17.04,4.86C6.31,43.56-.23,37.8,0,27.6Z"/>
  <path d="M62.11,37.92c0,1.5.84,2.28,2.7,2.28,2.16,0,4.14-1.2,6-2.7l-.42,1.32c-1.38,1.5-4.32,3.96-8.04,3.96-3,0-4.8-1.32-4.8-4.14s1.38-5.28,3.66-8.64c2.04-3,3.96-4.56,4.32-5.64.06-.66-.36-.96-1.32-.96-2.04,0-5.88.12-7.92.12-3.24,4.62-8.94,13.68-11.94,18.96l-.66-.24c-.48-.54-.6-1.44.12-2.76,2.22-4.32,7.14-12.12,11.76-18.9,1.56-2.22,2.16-2.64,4.56-2.58,1.5.06,1.08.78-.3,2.34-.54.6-1.08,1.26-1.44,1.68,1.5,0,8.52-.36,9.6-.36,1.38,0,2.28,1.02,2.28,2.16-.36,1.62-2.94,4.5-4.74,7.14-1.86,2.76-3.42,5.16-3.42,6.96Z"/>
  <path d="M82.87,43.02c-5.76,0-9.12-2.22-9.12-7.44,0-4.38,2.58-8.58,6.24-11.28,3.3-2.52,7.44-3.78,11.1-3.78,3.84,0,6.78,1.44,6.78,4.98-.06,3.72-4.26,6.42-8.46,7.44-3.66.9-7.38.96-10.26.72-.18.42-.24,1.44-.24,1.86,0,3.78,2.1,5.4,5.94,5.4s7.26-1.5,10.08-3.84l-.3,1.38c-2.46,2.34-6.6,4.56-11.76,4.56ZM79.39,32.52c2.4.3,5.76.12,8.88-.72,3.6-1.02,6.66-3.24,6.78-6.12.12-2.16-1.2-3.48-3.72-3.48-2.28,0-4.86,1.14-6.72,2.64-2.64,2.1-4.5,5.04-5.22,7.68Z"/>
  <path d="M108.79,43.02c-5.76,0-9.12-2.22-9.12-7.44,0-4.38,2.58-8.58,6.24-11.28,3.3-2.52,7.44-3.78,11.1-3.78,3.84,0,6.78,1.44,6.78,4.98-.06,3.72-4.26,6.42-8.46,7.44-3.66.9-7.38.96-10.26.72-.18.42-.24,1.44-.24,1.86,0,3.78,2.1,5.4,5.94,5.4s7.26-1.5,10.08-3.84l-.3,1.38c-2.46,2.34-6.6,4.56-11.76,4.56ZM105.31,32.52c2.4.3,5.76.12,8.88-.72,3.6-1.02,6.66-3.24,6.78-6.12.12-2.16-1.2-3.48-3.72-3.48-2.28,0-4.86,1.14-6.72,2.64-2.64,2.1-4.5,5.04-5.22,7.68Z"/>
  <path d="M143.88,38.7c0-2.7,1.44-5.1,3.12-7.68,1.62-2.52,3-4.02,3-5.58,0-1.32-1.02-2.16-3.3-2.16-3.12,0-7.74,1.98-11.76,5.7-1.44,1.92-3.48,5.4-4.56,7.86-1.14,2.7-1.86,4.62-2.1,5.94-1.5-.06-3.3-.66-3.24-3.3.12-2.76,1.8-6.3,4.26-10.14,2.28-3.6,4.98-6.72,6.78-7.86h3.42l.36.6c-1.5,1.68-2.94,3.48-3.72,4.68l.06.12c3.54-3,8.64-5.82,13.44-5.82,3.9,0,5.34,2.04,5.28,4.26,0,1.92-1.26,3.54-3.12,6.24-1.8,2.76-3.42,4.86-3.42,6.42s.9,2.22,2.76,2.22c2.1,0,4.08-1.14,6-2.7l-.42,1.32c-1.44,1.5-4.2,3.96-8.1,3.96-2.82,0-4.8-1.32-4.74-4.08Z"/>
  <path d="M219.66,8.04c-.84-1.92-4.62-5.4-11.58-5.4-5.82,0-10.98,1.8-15.66,5.34-5.7,4.26-10.08,11.82-10.32,19.56-.24,8.76,5.04,13.44,14.28,13.44,6.84,0,13.02-2.52,17.28-6.06l-.6,2.04c-3.18,3.06-9.96,6.54-18.48,6.6-11.88.06-18.66-5.52-18.36-15.84.24-9.18,5.4-16.98,12.36-21.84,5.46-3.9,11.46-5.88,18.9-5.88,8.04,0,12.78,3.78,13.2,6.78l-1.02,1.26Z"/>
  <path d="M248.05,21.48l.36.54c-2.1,2.46-3.48,4.32-4.86,6.48-2.7,4.2-4.68,7.56-4.68,9.42,0,1.56.96,2.28,2.82,2.28,2.16,0,4.26-1.14,6.18-2.7l-.42,1.32c-1.68,1.8-4.56,3.96-8.22,3.96-2.64,0-4.8-1.44-4.86-4.32-2.1,2.34-5.7,4.32-9.24,4.32-5.28,0-8.46-2.34-8.4-7.56.06-3.96,2.46-7.98,5.7-10.68,3.24-2.64,6.66-3.9,10.86-3.9s6.66,1.98,7.86,3.84c.96-1.2,2.04-2.28,3.12-3h3.78ZM234.49,22.38c-3.54,0-6.3,1.44-8.7,3.96-2.1,2.22-4.02,5.94-4.02,9.24-.06,3.24,1.5,5.22,5.22,5.22,2.58,0,5.46-1.5,7.38-3.66.3-1.8.96-3.6,2.34-6.12,1.32-2.34,2.46-4.08,3.66-5.58-.72-1.32-2.82-3.06-5.88-3.06Z"/>
  <path d="M267.31,10.86c4.08-5.34,9-9.24,15.18-9.24,3.24,0,5.64,1.26,7.26,3.12l-.18,1.2c-1.2-1.08-3.3-2.4-6.24-2.4-4.62,0-8.34,3.24-11.88,8.34-1.86,2.76-3.72,6.06-5.58,9.54l8.64.12-1.08,1.44-8.46.18c-3.3,6.3-7.26,13.92-11.76,21.36-6.54,10.86-12.12,13.74-18.6,13.74-3.12,0-6.24-1.2-7.92-3.12l.12-1.5c1.44,1.62,4.32,2.58,6.54,2.58,5.82,0,9.9-3.48,15.96-13.86,2.94-4.98,7.38-13.38,10.38-19.2-2.82-.24-3.78-.54-3.6-1.14.12-.66,1.92-.84,4.8-.96,2.16-3.84,4.14-7.14,6.42-10.2Z"/>
  <path d="M279.24,43.02c-5.76,0-9.12-2.22-9.12-7.44,0-4.38,2.58-8.58,6.24-11.28,3.3-2.52,7.44-3.78,11.1-3.78,3.84,0,6.78,1.44,6.78,4.98-.06,3.72-4.26,6.42-8.46,7.44-3.66.9-7.38.96-10.26.72-.18.42-.24,1.44-.24,1.86,0,3.78,2.1,5.4,5.94,5.4s7.26-1.5,10.08-3.84l-.3,1.38c-2.46,2.34-6.6,4.56-11.76,4.56ZM275.77,32.52c2.4.3,5.76.12,8.88-.72,3.6-1.02,6.66-3.24,6.78-6.12.12-2.16-1.2-3.48-3.72-3.48-2.28,0-4.86,1.14-6.72,2.64-2.64,2.1-4.5,5.04-5.22,7.68ZM284.4,18.24l4.68-5.76c1.38-1.74,2.46-2.4,3.42-2.4,1.08,0,1.92.72,1.92,1.68,0,1.08-.9,2.1-2.46,2.88l-6.96,4.08-.6-.48Z"/>
</svg>